# xmcd CD database file
#
# Track frame offsets:
#	150
#	29162
#	39922
#	54449
#	75844
#	96760
#	112070
#	130198
#	148470
#	173119
#	194659
#	221507
#	240071
#	263160
#	280886
#	308799
#
# Disc length: 4598 seconds
#
# Revision: 0
# Processed by: cddbd v1.5.2PL0 Copyright (c) Steve Scherf et al.
# Submitted via: CDex 1.51
#
DISCID=e211f410
DTITLE=Paolo Fresu - The Blue Note Years
DYEAR=2010
DGENRE=Jazz
TTITLE0=Kosmopolites
TTITLE1=Spazi Provvisori 2
TTITLE2=The Silent Trade
TTITLE3=T.R.E.A.P. (# 2)
TTITLE4=Yara
TTITLE5=O.F.T. 20th
TTITLE6=Incantamento
TTITLE7=Respiro
TTITLE8=Like Cab
TTITLE9=DB Thinking
TTITLE10=Cronache Mancate
TTITLE11=Gallantry
TTITLE12=Rosso, Verde, Giallo e Blu
TTITLE13=Ulixes
TTITLE14=Sull'Estremo Confine Del Mare
TTITLE15=Rock
EXTD=YEAR: 2010
EXTT0=
EXTT1=
EXTT2=
EXTT3=
EXTT4=
EXTT5=
EXTT6=
EXTT7=
EXTT8=
EXTT9=
EXTT10=
EXTT11=
EXTT12=
EXTT13=
EXTT14=
EXTT15=
PLAYORDER=
